<?xml version="1.0" standalone="no"?><svg xmlns="http://www.w3.org/2000/svg" viewBox="0 0 1440 320"><path fill="#1d3557" fill-opacity="1" d="M0,256L18.5,250.7C36.9,245,74,235,111,245.3C147.7,256,185,288,222,250.7C258.5,213,295,107,332,96C369.2,85,406,171,443,176C480,181,517,107,554,112C590.8,117,628,203,665,245.3C701.5,288,738,288,775,272C812.3,256,849,224,886,213.3C923.1,203,960,213,997,202.7C1033.8,192,1071,160,1108,144C1144.6,128,1182,128,1218,138.7C1255.4,149,1292,171,1329,165.3C1366.2,160,1403,128,1422,112L1440,96L1440,320L1421.5,320C1403.1,320,1366,320,1329,320C1292.3,320,1255,320,1218,320C1181.5,320,1145,320,1108,320C1070.8,320,1034,320,997,320C960,320,923,320,886,320C849.2,320,812,320,775,320C738.5,320,702,320,665,320C627.7,320,591,320,554,320C516.9,320,480,320,443,320C406.2,320,369,320,332,320C295.4,320,258,320,222,320C184.6,320,148,320,111,320C73.8,320,37,320,18,320L0,320Z"></path></svg>