<?xml version="1.0" standalone="no"?><svg xmlns="http://www.w3.org/2000/svg" viewBox="0 0 1440 320"><path fill="#1d3557" fill-opacity="1" d="M0,256L18.5,250.7C36.9,245,74,235,111,245.3C147.7,256,185,288,222,250.7C258.5,213,295,107,332,96C369.2,85,406,171,443,176C480,181,517,107,554,112C590.8,117,628,203,665,245.3C701.5,288,738,288,775,272C812.3,256,849,224,886,213.3C923.1,203,960,213,997,202.7C1033.8,192,1071,160,1108,144C1144.6,128,1182,128,1218,138.7C1255.4,149,1292,171,1329,165.3C1366.2,160,1403,128,1422,112L1440,96L1440,0L1421.5,0C1403.1,0,1366,0,1329,0C1292.3,0,1255,0,1218,0C1181.5,0,1145,0,1108,0C1070.8,0,1034,0,997,0C960,0,923,0,886,0C849.2,0,812,0,775,0C738.5,0,702,0,665,0C627.7,0,591,0,554,0C516.9,0,480,0,443,0C406.2,0,369,0,332,0C295.4,0,258,0,222,0C184.6,0,148,0,111,0C73.8,0,37,0,18,0L0,0Z"></path></svg>